# xmcd
#
# Track frame offsets: 
#        150
#        23024
#        51084
#        84516
#        111977
#        137162
#        161566
#        188856
#        218333
#        246268
#
# Disc length: 3731 seconds
#
# Revision: 4
# Processed by: cddbd v1.5.2PL0 Copyright (c) Steve Scherf et al.
# Submitted via: ExactAudioCopy v0.99pb5
#
DISCID=810e910a
DTITLE=Bill Clinton - My Life [CD5 of 6)
DYEAR=2004
DGENRE=Audio Book
TTITLE0=My Life Disc 5 Track-1
TTITLE1=My Life Disc 5 Track-2
TTITLE2=My Life Disc 5 Track-3
TTITLE3=My Life Disc 5 Track-4
TTITLE4=My Life Disc 5 Track-5
TTITLE5=My Life Disc 5 Track-6
TTITLE6=My Life Disc 5 Track-7
TTITLE7=My Life Disc 5 Track-8
TTITLE8=My Life Disc 5 Track-9
TTITLE9=My Life Disc 5 Track-10
EXTD=YEAR: 2004
EXTT0=
EXTT1=
EXTT2=
EXTT3=
EXTT4=
EXTT5=
EXTT6=
EXTT7=
EXTT8=
EXTT9=
PLAYORDER=
